<?xml version="1.0" encoding="UTF-8" standalone="no"?>
<svg
   width="32"
   height="18"
   version="1.1"
   id="svg1"
   sodipodi:docname="PathMesh3DBig.svg"
   inkscape:version="1.4.4 (dcaf3e7d9e, 2026-05-05)"
   inkscape:export-filename="PathMesh3DBig.png"
   inkscape:export-xdpi="6480"
   inkscape:export-ydpi="6480"
   xmlns:inkscape="http://www.inkscape.org/namespaces/inkscape"
   xmlns:sodipodi="http://sodipodi.sourceforge.net/DTD/sodipodi-0.dtd"
   xmlns="http://www.w3.org/2000/svg"
   xmlns:svg="http://www.w3.org/2000/svg">
  <defs
     id="defs1">
    <inkscape:path-effect
       effect="powermask"
       id="path-effect2"
       is_visible="true"
       lpeversion="1"
       uri="#mask-powermask-path-effect2"
       invert="false"
       hide_mask="false"
       background="true"
       background_color="#ffffffff" />
    <mask
       maskUnits="userSpaceOnUse"
       id="mask-powermask-path-effect2">
      <path
         id="mask-powermask-path-effect2_box"
         style="fill:#ffffff;fill-opacity:1"
         d="M 3.4441753e-8,0 H 15.991804 V 16.003511 H 3.4441753e-8 Z" />
      <rect
         style="fill:#000000;stroke-width:1.14013;stroke-linejoin:round"
         id="rect2"
         width="8.6875544"
         height="8.7432432"
         x="3.6423697"
         y="3.6389475"
         d="M 3.6423697,3.6389475 H 12.329924 V 12.382191 H 3.6423697 Z" />
    </mask>
    <filter
       id="mask-powermask-path-effect2_inverse"
       inkscape:label="filtermask-powermask-path-effect2"
       style="color-interpolation-filters:sRGB"
       height="100"
       width="100"
       x="-50"
       y="-50">
      <feColorMatrix
         id="mask-powermask-path-effect2_primitive1"
         values="1"
         type="saturate"
         result="fbSourceGraphic" />
      <feColorMatrix
         id="mask-powermask-path-effect2_primitive2"
         values="-1 0 0 0 1 0 -1 0 0 1 0 0 -1 0 1 0 0 0 1 0 "
         in="fbSourceGraphic" />
    </filter>
  </defs>
  <sodipodi:namedview
     id="namedview1"
     pagecolor="#505050"
     bordercolor="#ffffff"
     borderopacity="1"
     inkscape:showpageshadow="0"
     inkscape:pageopacity="0"
     inkscape:pagecheckerboard="1"
     inkscape:deskcolor="#505050"
     inkscape:zoom="28.953125"
     inkscape:cx="13.780896"
     inkscape:cy="11.72585"
     inkscape:window-width="1918"
     inkscape:window-height="1728"
     inkscape:window-x="0"
     inkscape:window-y="0"
     inkscape:window-maximized="0"
     inkscape:current-layer="svg1" />
  <path
     fill="#fc7f7f"
     d="m 14.234497,5.7608601 a 1.0797132,1.0797132 0 1 0 -1.473808,1.4738085 v 3.5312024 a 1.0797132,1.0797132 0 1 0 1.473808,1.473269 h 3.531202 a 1.0797132,1.0797132 0 1 0 1.473269,-1.473809 V 7.2341288 A 1.0797132,1.0797132 0 1 0 17.765159,5.7608601 Z m 0.368722,1.0797132 h 3.16194 a 1.0797132,1.0797132 0 0 0 0.393556,0.3940953 V 10.396069 L 14.60268,6.8405733 Z m -0.763357,0.7633572 3.554956,3.5554955 h -3.16194 A 1.0797132,1.0797132 0 0 0 13.839322,10.765331 V 7.6039305 Z"
     id="path1"
     style="stroke-width:0.539857" />
  <path
     fill="#fc7f7f"
     d="m 12.99971,1 a 2,2 0 0 0 -1.15,3.633 c -0.193,0.885 -0.554,1.34 -0.987,1.642 -0.644,0.451 -1.7129999,0.606 -2.9629999,0.73 -1.25,0.124 -2.681,0.221 -3.912,1.083 -0.892,0.625 -1.532,1.652 -1.818,3.096 a 2,2 0 1 0 1.98,0.183 c 0.193,-0.885 0.553,-1.337 0.987,-1.64 0.644,-0.451 1.713,-0.606 2.963,-0.73 1.25,-0.124 2.6809999,-0.221 3.9119999,-1.083 0.892,-0.625 1.532,-1.654 1.818,-3.098 A 2,2 0 0 0 12.99971,1 Z"
     id="path1-1"
     mask="url(#mask-powermask-path-effect2)"
     inkscape:path-effect="#path-effect2"
     inkscape:original-d="m 12.99971,1 a 2,2 0 0 0 -1.15,3.633 c -0.193,0.885 -0.554,1.34 -0.987,1.642 -0.644,0.451 -1.7129999,0.606 -2.9629999,0.73 -1.25,0.124 -2.681,0.221 -3.912,1.083 -0.892,0.625 -1.532,1.652 -1.818,3.096 a 2,2 0 1 0 1.98,0.183 c 0.193,-0.885 0.553,-1.337 0.987,-1.64 0.644,-0.451 1.713,-0.606 2.963,-0.73 1.25,-0.124 2.6809999,-0.221 3.9119999,-1.083 0.892,-0.625 1.532,-1.654 1.818,-3.098 A 2,2 0 0 0 12.99971,1 Z"
     transform="translate(8.0040982,0.99824473)" />
</svg>
